<?xml version="1.0" encoding="UTF-8" standalone="no"?><!DOCTYPE svg PUBLIC "-//W3C//DTD SVG 1.1//EN" "http://www.w3.org/Graphics/SVG/1.1/DTD/svg11.dtd"><svg width="100%" height="100%" viewBox="0 0 1713 571" version="1.1" xmlns="http://www.w3.org/2000/svg" xmlns:xlink="http://www.w3.org/1999/xlink" xml:space="preserve" xmlns:serif="http://www.serif.com/" style="fill-rule:evenodd;clip-rule:evenodd;stroke-linejoin:round;stroke-miterlimit:2;"><path d="M590.8,212.367l70.933,-0l0,41.8l-125.083,-0l-0,-222.3l54.15,-0l0,180.5Zm123.996,-153.267c-9.5,0 -17.313,-2.745 -23.433,-8.233c-5.913,-5.7 -8.867,-12.667 -8.867,-20.9c-0,-8.445 2.954,-15.411 8.866,-20.9c6.121,-5.7 13.934,-8.55 23.434,-8.55c9.287,-0 16.887,2.85 22.8,8.55c6.121,5.489 9.183,12.455 9.183,20.9c0,8.233 -3.062,15.2 -9.183,20.9c-5.913,5.488 -13.513,8.233 -22.8,8.233Zm26.917,18.367l-0,176.7l-54.151,-0l0,-176.7l54.15,-0Zm93.392,25.016c5.067,-8.233 12.35,-14.883 21.85,-19.95c9.5,-5.066 20.371,-7.6 32.617,-7.6c14.567,0 27.758,3.695 39.583,11.084c11.821,7.388 21.109,17.944 27.867,31.666c6.967,13.722 10.45,29.662 10.45,47.817c-0,18.155 -3.483,34.2 -10.45,48.133c-6.758,13.722 -16.046,24.384 -27.867,31.984c-11.825,7.388 -25.016,11.083 -39.583,11.083c-12.458,-0 -23.329,-2.428 -32.617,-7.283c-9.292,-5.067 -16.575,-11.717 -21.85,-19.95l0,24.7l-54.15,-0l0,-234.334l54.15,0l0,82.65Zm77.267,63.017c-0,-13.511 -3.8,-24.067 -11.4,-31.667c-7.392,-7.811 -16.575,-11.716 -27.55,-11.716c-10.767,-0 -19.95,3.905 -27.55,11.716c-7.392,7.812 -11.084,18.472 -11.084,31.984c0,13.511 3.692,24.172 11.084,31.983c7.6,7.811 16.783,11.717 27.55,11.717c10.766,-0 19.95,-3.906 27.55,-11.717c7.6,-8.022 11.4,-18.789 11.4,-32.3Zm137.658,-58.583c6.333,-9.712 14.25,-17.312 23.75,-22.8c9.5,-5.7 20.054,-8.55 31.667,-8.55l-0,57.316l-14.883,0c-13.513,0 -23.646,2.956 -30.4,8.867c-6.759,5.7 -10.134,15.833 -10.134,30.4l0,82.017l-54.15,-0l0,-176.7l54.15,-0l0,29.45Zm70.534,58.583c-0,-18.155 3.375,-34.095 10.133,-47.817c6.967,-13.722 16.358,-24.278 28.183,-31.666c11.821,-7.389 25.017,-11.084 39.583,-11.084c12.455,0 23.326,2.534 32.617,7.6c9.5,5.067 16.784,11.717 21.85,19.95l0,-25.016l54.15,-0l0,176.7l-54.15,-0l0,-25.017c-5.279,8.233 -12.666,14.883 -22.166,19.95c-9.292,5.067 -20.163,7.6 -32.617,7.6c-14.359,-0 -27.446,-3.695 -39.267,-11.083c-11.825,-7.6 -21.216,-18.262 -28.183,-31.984c-6.758,-13.933 -10.133,-29.978 -10.133,-48.133Zm132.366,0.317c0,-13.512 -3.8,-24.172 -11.4,-31.984c-7.391,-7.811 -16.466,-11.716 -27.233,-11.716c-10.767,-0 -19.95,3.905 -27.55,11.716c-7.392,7.6 -11.083,18.156 -11.083,31.667c-0,13.511 3.691,24.278 11.083,32.3c7.6,7.811 16.783,11.717 27.55,11.717c10.767,-0 19.842,-3.906 27.233,-11.717c7.6,-7.811 11.4,-18.472 11.4,-31.983Zm147.475,-58.9c6.334,-9.712 14.25,-17.312 23.75,-22.8c9.5,-5.7 20.054,-8.55 31.667,-8.55l-0,57.316l-14.883,0c-13.513,0 -23.646,2.956 -30.4,8.867c-6.759,5.7 -10.134,15.833 -10.134,30.4l0,82.017l-54.15,-0l0,-176.7l54.15,-0l0,29.45Zm261.796,-29.45l-110.833,260.616l-58.267,0l40.533,-89.933l-71.883,-170.683l60.483,-0l40.85,110.516l40.534,-110.516l58.583,-0Z" style="fill:#273e47;fill-rule:nonzero;stroke:#273e47;stroke-width:4.17px;"/><path d="M598.779,375.167l0,9.666l-51.333,0l-0,43.5l43.333,0l0,9.667l-43.333,0l-0,53.667l-11.667,-0l0,-116.5l63,-0Zm59.025,117.833c-8.554,0 -16.275,-1.887 -23.166,-5.667c-6.775,-3.887 -12.167,-9.333 -16.167,-16.333c-3.888,-7.112 -5.833,-15.387 -5.833,-24.833c-0,-9.446 2,-17.667 6,-24.667c4,-7.111 9.445,-12.555 16.333,-16.333c6.892,-3.889 14.612,-5.834 23.167,-5.834c8.558,0 16.279,1.945 23.166,5.834c7,3.778 12.446,9.222 16.334,16.333c4,7 6,15.221 6,24.667c-0,9.333 -2,17.554 -6,24.666c-4,7.113 -9.5,12.613 -16.5,16.5c-7,3.78 -14.775,5.667 -23.334,5.667Zm0,-10.167c6,0 11.559,-1.333 16.667,-4c5.112,-2.779 9.225,-6.887 12.333,-12.333c3.225,-5.554 4.834,-12.333 4.834,-20.333c-0,-8 -1.555,-14.721 -4.667,-20.167c-3.108,-5.554 -7.221,-9.667 -12.333,-12.333c-5.109,-2.778 -10.667,-4.167 -16.667,-4.167c-6,0 -11.554,1.389 -16.667,4.167c-5.108,2.666 -9.221,6.779 -12.333,12.333c-3,5.446 -4.5,12.167 -4.5,20.167c-0,8 1.5,14.779 4.5,20.333c3.112,5.446 7.167,9.554 12.167,12.333c5.112,2.667 10.666,4 16.666,4Zm145.934,-82.166l-0,91l-11.667,-0l-0,-16c-2.667,5.666 -6.775,10 -12.333,13c-5.555,3 -11.775,4.5 -18.667,4.5c-10.888,-0 -19.775,-3.334 -26.667,-10c-6.887,-6.78 -10.333,-16.555 -10.333,-29.334l-0,-53.166l11.5,-0l-0,51.833c-0,9.887 2.446,17.446 7.333,22.667c5,5.22 11.779,7.833 20.334,7.833c8.779,-0 15.779,-2.779 21,-8.333c5.225,-5.555 7.833,-13.721 7.833,-24.5l-0,-49.5l11.667,-0Zm69.304,-1.667c10.887,-0 19.779,3.389 26.666,10.167c6.888,6.666 10.334,16.387 10.334,29.166l-0,53.334l-11.5,-0l-0,-52c-0,-9.888 -2.5,-17.446 -7.5,-22.667c-4.888,-5.222 -11.613,-7.833 -20.167,-7.833c-8.779,-0 -15.779,2.778 -21,8.333c-5.221,5.554 -7.833,13.721 -7.833,24.5l-0,49.667l-11.667,-0l0,-91l11.667,-0l-0,15.5c2.887,-5.556 7.054,-9.778 12.5,-12.667c5.446,-3 11.612,-4.5 18.5,-4.5Zm57.466,47c0,-9.333 1.892,-17.5 5.667,-24.5c3.779,-7.111 8.946,-12.555 15.5,-16.333c6.667,-3.889 14.167,-5.834 22.5,-5.834c8,0 15.225,1.945 21.667,5.834c6.446,3.888 11.166,8.944 14.166,15.166l0,-52l11.667,0l0,123.334l-11.667,-0l0,-20.334c-2.775,6.334 -7.333,11.554 -13.666,15.667c-6.334,4 -13.775,6 -22.334,6c-8.333,-0 -15.833,-1.946 -22.5,-5.833c-6.554,-3.888 -11.72,-9.388 -15.5,-16.5c-3.666,-7.113 -5.5,-15.334 -5.5,-24.667Zm79.5,0.167c0,-7.334 -1.5,-13.78 -4.5,-19.334c-3,-5.554 -7.108,-9.833 -12.333,-12.833c-5.108,-3 -10.775,-4.5 -17,-4.5c-6.442,0 -12.221,1.445 -17.333,4.333c-5.109,2.888 -9.167,7.113 -12.167,12.667c-2.887,5.446 -4.333,11.946 -4.333,19.5c-0,7.446 1.446,14 4.333,19.667c3,5.554 7.058,9.833 12.167,12.833c5.112,2.887 10.891,4.333 17.333,4.333c6.225,0 11.892,-1.5 17,-4.5c5.225,-3 9.333,-7.279 12.333,-12.833c3,-5.554 4.5,-12 4.5,-19.333Zm120.638,-4.667c-0,4 -0.113,7.054 -0.333,9.167l-75.5,-0c0.333,6.887 2,12.779 5,17.666c3,4.888 6.941,8.613 11.833,11.167c4.887,2.446 10.221,3.667 16,3.667c7.554,-0 13.887,-1.834 19,-5.5c5.221,-3.667 8.667,-8.613 10.333,-14.834l12.334,0c-2.226,8.888 -7,16.167 -14.334,21.834c-7.225,5.554 -16.333,8.333 -27.333,8.333c-8.558,0 -16.225,-1.887 -23,-5.667c-6.779,-3.887 -12.113,-9.333 -16,-16.333c-3.779,-7.112 -5.667,-15.387 -5.667,-24.833c0,-9.446 1.888,-17.721 5.667,-24.834c3.775,-7.111 9.054,-12.555 15.833,-16.333c6.775,-3.778 14.5,-5.667 23.167,-5.667c8.667,0 16.221,1.889 22.667,5.667c6.554,3.778 11.554,8.889 15,15.333c3.554,6.334 5.333,13.388 5.333,21.167Zm-11.833,-0.333c0.108,-6.779 -1.28,-12.554 -4.167,-17.334c-2.779,-4.779 -6.613,-8.388 -11.5,-10.833c-4.892,-2.445 -10.225,-3.667 -16,-3.667c-8.667,0 -16.058,2.778 -22.167,8.334c-6.112,5.554 -9.5,13.387 -10.167,23.5l64,-0Zm27.842,4.833c0,-9.333 1.892,-17.5 5.667,-24.5c3.779,-7.111 8.946,-12.555 15.5,-16.333c6.667,-3.889 14.167,-5.834 22.5,-5.834c8,0 15.225,1.945 21.667,5.834c6.445,3.888 11.166,8.944 14.166,15.166l0,-52l11.667,0l-0,123.334l-11.667,-0l0,-20.334c-2.775,6.334 -7.333,11.555 -13.666,15.667c-6.334,4 -13.776,6 -22.334,6c-8.333,0 -15.833,-1.946 -22.5,-5.833c-6.554,-3.888 -11.721,-9.388 -15.5,-16.5c-3.666,-7.113 -5.5,-15.334 -5.5,-24.667Zm79.5,0.167c0,-7.334 -1.5,-13.779 -4.5,-19.334c-3,-5.554 -7.108,-9.833 -12.333,-12.833c-5.108,-3 -10.775,-4.5 -17,-4.5c-6.442,0 -12.221,1.445 -17.333,4.333c-5.109,2.888 -9.167,7.113 -12.167,12.667c-2.888,5.446 -4.333,11.946 -4.333,19.5c-0,7.446 1.445,14 4.333,19.667c3,5.554 7.058,9.833 12.167,12.833c5.112,2.888 10.891,4.333 17.333,4.333c6.225,0 11.892,-1.5 17,-4.5c5.225,-3 9.333,-7.279 12.333,-12.833c3,-5.554 4.5,-12 4.5,-19.333Zm75.871,-63.5l0,-10.5l28.333,-0l0,119.5l-11.833,-0l0,-109l-16.5,-0Zm69.833,77.166c1.221,7.221 4,12.78 8.334,16.667c4.333,3.888 10.275,5.833 17.833,5.833c10.442,0 18.167,-4.054 23.167,-12.166c5.108,-8.221 7.441,-21.779 7,-40.667c-2.113,6.113 -6.167,10.946 -12.167,14.5c-5.892,3.446 -12.667,5.167 -20.333,5.167c-11.667,-0 -21.059,-3.5 -28.167,-10.5c-7,-7 -10.5,-16.721 -10.5,-29.167c-0,-7.445 1.442,-14.167 4.333,-20.167c2.888,-6 7.275,-10.722 13.167,-14.166c5.887,-3.445 13.108,-5.167 21.667,-5.167c15.775,0 26.775,5.167 33,15.5c6.22,10.222 9.333,24.945 9.333,44.167c-0,20.779 -3.113,36.387 -9.333,46.833c-6.113,10.446 -16.667,15.667 -31.667,15.667c-11,-0 -19.558,-2.946 -25.667,-8.834c-6.112,-6 -9.725,-13.833 -10.833,-23.5l10.833,0Zm25.667,-20.666c5.221,-0 10,-1.054 14.333,-3.167c4.442,-2.221 8,-5.446 10.667,-9.667c2.667,-4.22 4,-9.279 4,-15.166c-0,-9.112 -2.613,-16.612 -7.833,-22.5c-5.113,-5.889 -12.5,-8.834 -22.167,-8.834c-8.558,0 -15.446,2.667 -20.667,8c-5.112,5.334 -7.666,12.445 -7.666,21.334c-0,9.333 2.554,16.666 7.666,22c5.109,5.333 12.334,8 21.667,8Zm78.5,20.666c1.221,7.221 4,12.78 8.333,16.667c4.334,3.888 10.275,5.833 17.834,5.833c10.441,0 18.166,-4.054 23.166,-12.166c5.109,-8.221 7.442,-21.779 7,-40.667c-2.112,6.113 -6.166,10.946 -12.166,14.5c-5.892,3.446 -12.667,5.167 -20.334,5.167c-11.666,-0 -21.058,-3.5 -28.166,-10.5c-7,-7 -10.5,-16.721 -10.5,-29.167c-0,-7.445 1.441,-14.167 4.333,-20.167c2.887,-6 7.275,-10.722 13.167,-14.166c5.887,-3.445 13.108,-5.167 21.666,-5.167c15.775,0 26.775,5.167 33,15.5c6.221,10.222 9.334,24.945 9.334,44.167c-0,20.779 -3.113,36.387 -9.334,46.833c-6.112,10.446 -16.666,15.667 -31.666,15.667c-11,-0 -19.559,-2.946 -25.667,-8.834c-6.113,-6 -9.725,-13.833 -10.833,-23.5l10.833,0Zm25.667,-20.666c5.22,-0 10,-1.054 14.333,-3.167c4.442,-2.221 8,-5.446 10.667,-9.667c2.666,-4.22 4,-9.279 4,-15.166c-0,-9.112 -2.613,-16.612 -7.834,-22.5c-5.112,-5.889 -12.5,-8.834 -22.166,-8.834c-8.559,0 -15.446,2.667 -20.667,8c-5.113,5.334 -7.667,12.445 -7.667,21.334c0,9.333 2.554,16.666 7.667,22c5.108,5.333 12.333,8 21.667,8Zm138.333,-57l-61,-0l-0,42.666c2.775,-3.887 6.833,-7.054 12.167,-9.5c5.333,-2.555 11.108,-3.833 17.333,-3.833c9.108,0 16.554,1.889 22.333,5.667c5.775,3.666 9.942,8.5 12.5,14.5c2.554,5.887 3.834,12.221 3.834,19c-0,7.779 -1.5,14.833 -4.5,21.166c-2.892,6.221 -7.392,11.167 -13.5,14.834c-6,3.666 -13.5,5.5 -22.5,5.5c-11.446,-0 -20.725,-2.946 -27.834,-8.834c-7.112,-6 -11.446,-14.054 -13,-24.166l11.5,-0c1.442,7.333 4.775,13 10,17c5.221,4 11.667,6 19.334,6c9.666,-0 16.941,-2.834 21.833,-8.5c5,-5.779 7.5,-13.388 7.5,-22.834c-0,-9.22 -2.5,-16.387 -7.5,-21.5c-5,-5.22 -12.167,-7.833 -21.5,-7.833c-6.446,0 -12.113,1.5 -17,4.5c-4.892,3 -8.5,7.054 -10.833,12.167l-11,-0l-0,-66.167l71.833,0l-0,10.167Z" style="fill:#273e47;fill-rule:nonzero;stroke:#273e47;stroke-width:4.17px;"/><path d="M10.344,206.153c-0.049,0.292 -0.114,0.602 -0.212,0.895c0.098,-0.293 0.163,-0.603 0.212,-0.895Zm0.065,-0.359c-0,0.537 0.065,2.376 0.716,4.883c1.335,5.029 4.801,9.587 9.521,12.468l185.075,112.646c-0.309,-1.823 -0.439,-3.695 -0.439,-5.615c-0,-18.132 7.845,-30.648 26.269,-41.878l176.172,-107.292c2.328,-1.416 2.572,-3.76 2.572,-4.704c0,-0.944 -0.244,-3.288 -2.572,-4.704l-187.126,-113.965l-189.094,115.154c-15.365,9.358 -21.062,18.147 -21.062,32.405c0,0.196 -0.016,0.407 -0.032,0.602Zm219.091,153.679c-3.873,-0 -7.617,-1.042 -11.083,-3.158c-0.7,-0.439 -1.367,-0.879 -2.019,-1.4l-200.944,-122.314c-7.161,-4.329 -12.239,-11.1 -14.339,-18.994c-1.025,-3.955 -1.237,-6.641 -1.058,-8.464c0.016,-18.115 7.862,-30.615 26.27,-41.829l191.683,-116.748c1.595,-0.977 3.564,-0.977 5.175,-0l189.73,115.56c4.868,2.962 7.764,8.268 7.764,14.176c0,5.908 -2.896,11.231 -7.764,14.176l-176.172,107.292c-15.38,9.375 -21.077,18.148 -21.077,32.406c-0,6.478 2.523,12.435 6.576,15.69c0.081,0.081 0.195,0.147 0.276,0.228c0.358,0.26 0.716,0.504 1.091,0.732c4.118,2.523 9,2.197 14.111,-0.911l178.19,-108.529l-14.469,-9.945c-2.393,-1.627 -3.06,-5.029 -1.514,-7.568c1.579,-2.523 4.785,-3.239 7.194,-1.579l21.533,14.795c1.513,1.042 2.409,2.832 2.359,4.736c-0.046,1.905 -1.025,3.646 -2.605,4.59l-185.48,112.973c-4.475,2.734 -9.033,4.085 -13.428,4.085Z" style="fill:#a4243b;fill-rule:nonzero;"/><path d="M316.22,428.4c-1.791,0 -3.532,-0.975 -4.493,-2.733c-1.432,-2.605 -0.585,-5.959 1.905,-7.471l102.278,-62.304l-14.469,-9.929c-2.393,-1.66 -3.06,-5.045 -1.513,-7.584c1.578,-2.539 4.784,-3.255 7.193,-1.595l21.533,14.811c1.513,1.042 2.408,2.832 2.358,4.736c-0.045,1.904 -1.024,3.63 -2.604,4.59l-109.601,66.75c-0.813,0.521 -1.709,0.729 -2.587,0.729Z" style="fill:#a4243b;fill-rule:nonzero;"/><path d="M10.344,324.674c-0.049,0.293 -0.114,0.586 -0.212,0.863c0.098,-0.277 0.163,-0.57 0.212,-0.863Zm208.935,149.676c-0.895,0 -1.79,-0.246 -2.604,-0.733l-201.221,-122.494c-7.161,-4.362 -12.239,-11.117 -14.339,-19.027c-1.025,-3.939 -1.237,-6.608 -1.058,-8.447c0.016,-18.083 7.829,-30.583 26.14,-41.764l8.724,-5.974c2.408,-1.644 5.631,-0.928 7.194,1.595c1.546,2.556 0.878,5.941 -1.53,7.585l-8.838,6.054c-0.082,0.05 -0.163,0.098 -0.244,0.147c-15.365,9.359 -21.062,18.148 -21.062,32.405c0,0.196 -0.016,0.391 -0.032,0.603c-0,0.521 0.065,2.392 0.716,4.866c1.335,5.062 4.801,9.603 9.521,12.468l201.237,122.495c2.475,1.513 3.321,4.867 1.872,7.471c-0.944,1.771 -2.702,2.75 -4.476,2.75Z" style="fill:#a4243b;fill-rule:nonzero;"/><path d="M280.786,492.271c-0.879,-0 -1.774,-0.246 -2.555,-0.717c-1.628,-0.962 -2.637,-2.783 -2.637,-4.754l0,-32.567l-32.699,19.675c-8.365,5.096 -17.073,5.421 -24.479,0.913c-8.089,-4.946 -13.134,-14.958 -13.134,-26.121c-0,-18.167 7.845,-30.683 26.269,-41.897l176.172,-107.308c2.327,-1.399 2.572,-3.743 2.572,-4.687c-0,-0.961 -0.245,-3.288 -2.572,-4.704c-2.474,-1.514 -3.32,-4.867 -1.888,-7.487c1.416,-2.604 4.606,-3.499 7.08,-2.002c4.868,2.962 7.764,8.268 7.764,14.193c0,5.908 -2.896,11.214 -7.764,14.177l-176.172,107.308c-15.38,9.34 -21.077,18.132 -21.077,32.407c-0,7.158 3.109,13.704 7.942,16.65c4.118,2.504 9.001,2.196 14.112,-0.929l40.495,-24.35c1.611,-0.975 3.58,-0.958 5.175,0.017c1.595,0.975 2.588,2.8 2.588,4.737l0,32.325l25.049,-15.837l0,-38.38c0,-7.585 -3.89,-14.648 -10.14,-18.408c-2.507,-1.514 -3.353,-4.85 -1.937,-7.471c1.416,-2.636 4.59,-3.532 7.064,-2.034c9.489,5.696 15.397,16.406 15.397,27.913l0,41.488c0,1.937 -0.96,3.712 -2.539,4.687l-35.417,22.38c-0.83,0.52 -1.758,0.783 -2.669,0.783Z" style="fill:#a4243b;fill-rule:nonzero;"/><path d="M188.192,266.732c-0.847,0 -1.709,-0.228 -2.507,-0.7l-159.277,-93.197c-2.507,-1.464 -3.418,-4.801 -2.018,-7.438c1.367,-2.653 4.524,-3.613 7.047,-2.148l159.261,93.213c2.523,1.465 3.435,4.801 2.035,7.454c-0.944,1.791 -2.718,2.816 -4.541,2.816Z" style="fill:#a4243b;fill-rule:nonzero;"/></svg>