<?xml version="1.0" encoding="UTF-8" standalone="no"?><!DOCTYPE svg PUBLIC "-//W3C//DTD SVG 1.1//EN" "http://www.w3.org/Graphics/SVG/1.1/DTD/svg11.dtd"><svg width="100%" height="100%" viewBox="0 0 7138 2380" version="1.1" xmlns="http://www.w3.org/2000/svg" xmlns:xlink="http://www.w3.org/1999/xlink" xml:space="preserve" xmlns:serif="http://www.serif.com/" style="fill-rule:evenodd;clip-rule:evenodd;stroke-linejoin:round;stroke-miterlimit:2;"><g><path d="M2461.67,884.863l295.554,-0l-0,174.166l-521.179,0l-0,-926.25l225.625,0l-0,752.084Zm516.65,-638.613c-39.584,0 -72.138,-11.438 -97.638,-34.304c-24.637,-23.75 -36.946,-52.779 -36.946,-87.084c0,-35.187 12.309,-64.212 36.942,-87.083c25.504,-23.75 58.058,-35.625 97.642,-35.625c38.696,0 70.362,11.875 95,35.625c25.504,22.871 38.262,51.896 38.262,87.083c0,34.305 -12.758,63.334 -38.262,87.084c-24.638,22.866 -56.305,34.304 -95,34.304Zm112.154,76.529l-0,736.25l-225.629,0l-0,-736.25l225.629,0Zm389.133,104.234c21.113,-34.305 51.459,-62.013 91.042,-83.125c39.583,-21.109 84.879,-31.667 135.904,-31.667c60.696,-0 115.658,15.396 164.929,46.183c49.254,30.784 87.954,74.767 116.113,131.942c29.029,57.175 43.541,123.592 43.541,199.237c0,75.646 -14.512,142.5 -43.541,200.555c-28.159,57.175 -66.859,101.6 -116.113,133.266c-49.271,30.784 -104.233,46.179 -164.929,46.179c-51.908,0 -97.204,-10.116 -135.904,-30.345c-38.717,-21.113 -69.063,-48.821 -91.042,-83.125l0,102.916l-225.625,0l0,-976.391l225.625,-0l0,344.375Zm321.946,262.57c0,-56.295 -15.833,-100.279 -47.5,-131.945c-30.8,-32.546 -69.062,-48.817 -114.792,-48.817c-44.862,-0 -83.125,16.271 -114.791,48.817c-30.8,32.55 -46.184,76.966 -46.184,133.266c0,56.296 15.384,100.717 46.184,133.263c31.666,32.546 69.929,48.821 114.791,48.821c44.859,-0 83.125,-16.275 114.792,-48.821c31.667,-33.425 47.5,-78.288 47.5,-134.584Zm573.575,-244.095c26.388,-40.467 59.375,-72.134 98.958,-95c39.584,-23.75 83.559,-35.625 131.946,-35.625l0,238.816l-62.012,0c-56.305,0 -98.525,12.317 -126.667,36.946c-28.163,23.75 -42.225,65.971 -42.225,126.667l0,341.737l-225.625,0l0,-736.25l225.625,0l0,122.709Zm293.892,244.095c-0,-75.645 14.062,-142.062 42.221,-199.237c29.029,-57.175 68.158,-101.158 117.429,-131.942c49.254,-30.787 104.237,-46.183 164.929,-46.183c51.896,-0 97.192,10.558 135.904,31.667c39.583,21.112 69.933,48.82 91.042,83.125l-0,-104.234l225.625,0l-0,736.25l-225.625,0l-0,-104.237c-21.996,34.304 -52.775,62.012 -92.359,83.125c-38.716,21.112 -84.012,31.666 -135.904,31.666c-59.829,0 -114.358,-15.395 -163.612,-46.179c-49.271,-31.666 -88.4,-76.091 -117.429,-133.266c-28.159,-58.055 -42.221,-124.909 -42.221,-200.555Zm551.525,1.321c-0,-56.3 -15.834,-100.716 -47.5,-133.266c-30.796,-32.546 -68.609,-48.817 -113.471,-48.817c-44.863,-0 -83.125,16.271 -114.792,48.817c-30.8,31.666 -46.179,75.65 -46.179,131.945c0,56.296 15.379,101.159 46.179,134.584c31.667,32.546 69.929,48.821 114.792,48.821c44.862,-0 82.675,-16.275 113.471,-48.821c31.666,-32.546 47.5,-76.967 47.5,-133.263Zm614.479,-245.416c26.392,-40.467 59.375,-72.134 98.958,-95c39.584,-23.75 83.559,-35.625 131.946,-35.625l0,238.816l-62.012,0c-56.305,0 -98.525,12.317 -126.667,36.946c-28.163,23.75 -42.225,65.971 -42.225,126.667l-0,341.737l-225.625,0l-0,-736.25l225.625,0l-0,122.709Zm1090.82,-122.709l-461.805,1085.9l-242.779,0l168.888,-374.721l-299.513,-711.179l252.013,0l170.208,460.483l168.892,-460.483l244.096,0Z" style="fill:#f2f2f2;fill-rule:nonzero;"/><path d="M2494.91,1563.2l-0,40.275l-213.888,-0l0,181.25l180.554,-0l0,40.279l-180.554,-0l0,223.612l-48.612,0l-0,-485.416l262.5,-0Zm245.937,490.971c-35.642,-0 -67.812,-7.863 -96.525,-23.613c-28.229,-16.196 -50.696,-38.887 -67.363,-68.054c-16.2,-29.633 -24.304,-64.113 -24.304,-103.471c0,-39.358 8.334,-73.612 25,-102.779c16.667,-29.629 39.355,-52.313 68.054,-68.054c28.717,-16.204 60.884,-24.308 96.53,-24.308c35.658,-0 67.829,8.104 96.525,24.308c29.166,15.742 51.858,38.425 68.058,68.054c16.667,29.167 25,63.421 25,102.779c-0,38.888 -8.333,73.142 -25,102.775c-16.667,29.638 -39.583,52.554 -68.75,68.75c-29.167,15.75 -61.563,23.613 -97.225,23.613Zm-0,-42.363c25,0 48.162,-5.554 69.446,-16.667c21.3,-11.579 38.437,-28.695 51.387,-51.387c13.438,-23.142 20.142,-51.388 20.142,-84.721c-0,-33.333 -6.479,-61.337 -19.446,-84.029c-12.95,-23.142 -30.087,-40.279 -51.387,-51.388c-21.288,-11.575 -44.446,-17.362 -69.446,-17.362c-25,-0 -48.142,5.787 -69.446,17.362c-21.283,11.109 -38.421,28.246 -51.388,51.388c-12.5,22.692 -18.75,50.696 -18.75,84.029c0,33.333 6.25,61.579 18.75,84.721c12.967,22.692 29.863,39.808 50.696,51.387c21.3,11.113 44.442,16.667 69.442,16.667Zm608.058,-342.358l0,379.166l-48.612,0l-0,-66.666c-11.113,23.608 -28.229,41.666 -51.388,54.166c-23.146,12.5 -49.062,18.75 -77.779,18.75c-45.367,0 -82.396,-13.891 -111.112,-41.666c-28.696,-28.25 -43.055,-68.979 -43.055,-122.225l0,-221.525l47.917,-0l0,215.971c0,41.195 10.192,72.691 30.554,94.445c20.834,21.75 49.079,32.638 84.725,32.638c36.579,0 65.746,-11.579 87.5,-34.721c21.771,-23.146 32.638,-57.171 32.638,-102.083l-0,-206.25l48.612,-0Zm288.767,-6.946c45.362,0 82.412,14.121 111.108,42.362c28.7,27.775 43.059,68.28 43.059,121.525l-0,222.225l-47.917,0l-0,-216.666c-0,-41.2 -10.417,-72.692 -31.25,-94.446c-20.367,-21.758 -48.388,-32.638 -84.029,-32.638c-36.579,0 -65.746,11.575 -87.5,34.721c-21.754,23.142 -32.638,57.171 -32.638,102.084l0,206.945l-48.612,0l-0,-379.166l48.612,-0l0,64.583c12.029,-23.15 29.392,-40.742 52.084,-52.779c22.691,-12.5 48.383,-18.75 77.083,-18.75Zm239.442,195.833c-0,-38.887 7.883,-72.916 23.612,-102.083c15.746,-29.629 37.275,-52.313 64.583,-68.054c27.78,-16.204 59.03,-24.309 93.75,-24.309c33.334,0 63.438,8.105 90.28,24.309c26.858,16.2 46.525,37.266 59.025,63.191l-0,-216.666l48.612,-0l0,513.891l-48.612,0l-0,-84.725c-11.563,26.392 -30.554,48.142 -56.942,65.28c-26.392,16.666 -57.396,25 -93.058,25c-34.721,-0 -65.971,-8.109 -93.75,-24.305c-27.309,-16.2 -48.834,-39.116 -64.584,-68.75c-15.275,-29.637 -22.916,-63.891 -22.916,-102.779Zm331.25,0.696c-0,-30.558 -6.25,-57.417 -18.75,-80.558c-12.5,-23.142 -29.617,-40.971 -51.388,-53.471c-21.283,-12.5 -44.896,-18.75 -70.833,-18.75c-26.842,-0 -50.921,6.021 -72.221,18.054c-21.287,12.033 -38.196,29.638 -50.696,52.779c-12.029,22.692 -18.054,49.775 -18.054,81.25c0,31.025 6.025,58.334 18.054,81.946c12.5,23.142 29.409,40.971 50.696,53.471c21.3,12.029 45.379,18.054 72.221,18.054c25.937,0 49.55,-6.25 70.833,-18.75c21.771,-12.5 38.888,-30.329 51.388,-53.471c12.5,-23.141 18.75,-50 18.75,-80.554Zm502.658,-19.446c0,16.667 -0.471,29.392 -1.388,38.196l-314.583,0c1.388,28.696 8.333,53.246 20.833,73.608c12.5,20.367 28.921,35.888 49.305,46.53c20.362,10.191 42.587,15.279 66.666,15.279c31.475,-0 57.863,-7.642 79.167,-22.917c21.754,-15.279 36.112,-35.887 43.054,-61.808l51.392,-0c-9.275,37.033 -29.167,67.362 -59.725,90.975c-30.104,23.141 -68.054,34.721 -113.888,34.721c-35.658,-0 -67.604,-7.863 -95.833,-23.613c-28.246,-16.196 -50.471,-38.887 -66.667,-68.054c-15.746,-29.633 -23.612,-64.113 -23.612,-103.471c-0,-39.358 7.866,-73.837 23.612,-103.475c15.729,-29.629 37.725,-52.312 65.971,-68.054c28.229,-15.742 60.417,-23.613 96.529,-23.613c36.113,0 67.588,7.871 94.446,23.613c27.308,15.742 48.142,37.037 62.5,63.887c14.808,26.392 22.221,55.784 22.221,88.196Zm-49.304,-1.387c0.45,-28.246 -5.334,-52.309 -17.363,-72.225c-11.579,-19.913 -27.554,-34.95 -47.916,-45.138c-20.384,-10.187 -42.605,-15.279 -66.667,-15.279c-36.113,0 -66.908,11.575 -92.363,34.725c-25.466,23.142 -39.583,55.779 -42.362,97.917l266.671,-0Zm116.008,20.137c0,-38.887 7.883,-72.916 23.613,-102.083c15.745,-29.629 37.275,-52.313 64.583,-68.054c27.779,-16.204 59.029,-24.309 93.75,-24.309c33.333,0 63.437,8.105 90.279,24.309c26.854,16.2 46.525,37.266 59.025,63.191l0,-216.666l48.613,-0l-0,513.891l-48.613,0l0,-84.725c-11.562,26.392 -30.554,48.146 -56.941,65.28c-26.392,16.666 -57.401,25 -93.059,25c-34.721,-0 -65.971,-8.109 -93.75,-24.305c-27.308,-16.2 -48.837,-39.116 -64.583,-68.75c-15.275,-29.637 -22.917,-63.891 -22.917,-102.779Zm331.25,0.696c0,-30.558 -6.25,-57.412 -18.75,-80.558c-12.5,-23.142 -29.616,-40.971 -51.387,-53.471c-21.284,-12.5 -44.896,-18.75 -70.834,-18.75c-26.841,-0 -50.921,6.021 -72.221,18.054c-21.287,12.033 -38.195,29.638 -50.695,52.779c-12.034,22.692 -18.055,49.775 -18.055,81.25c0,31.025 6.021,58.334 18.055,81.946c12.5,23.142 29.408,40.971 50.695,53.471c21.3,12.033 45.38,18.054 72.221,18.054c25.938,0 49.55,-6.25 70.834,-18.75c21.77,-12.5 38.887,-30.329 51.387,-53.471c12.5,-23.141 18.75,-50 18.75,-80.554Zm316.129,-264.583l0,-43.75l118.055,-0l-0,497.916l-49.305,0l0,-454.166l-68.75,-0Zm290.971,321.525c5.088,30.087 16.667,53.25 34.725,69.446c18.054,16.2 42.813,24.304 74.304,24.304c43.509,-0 75.696,-16.892 96.53,-50.692c21.283,-34.254 31.004,-90.746 29.166,-169.446c-8.804,25.471 -25.696,45.609 -50.696,60.417c-24.55,14.358 -52.779,21.529 -84.72,21.529c-48.613,0 -87.746,-14.583 -117.363,-43.75c-29.167,-29.167 -43.75,-69.671 -43.75,-121.529c0,-31.021 6.008,-59.029 18.054,-84.029c12.034,-25 30.313,-44.675 54.863,-59.025c24.529,-14.354 54.616,-21.529 90.279,-21.529c65.729,-0 111.562,21.529 137.5,64.583c25.917,42.592 38.887,103.937 38.887,184.029c0,86.579 -12.97,151.613 -38.887,195.138c-25.471,43.525 -69.446,65.279 -131.946,65.279c-45.833,-0 -81.492,-12.275 -106.946,-36.809c-25.466,-25 -40.521,-57.637 -45.137,-97.916l45.137,-0Zm106.946,-86.109c21.754,0 41.667,-4.391 59.721,-13.195c18.508,-9.255 33.333,-22.692 44.446,-40.28c11.112,-17.583 16.666,-38.662 16.666,-63.191c0,-37.967 -10.887,-69.217 -32.637,-93.75c-21.304,-24.538 -52.083,-36.809 -92.363,-36.809c-35.658,0 -64.358,11.113 -86.112,33.334c-21.3,22.225 -31.942,51.854 -31.942,88.891c0,38.888 10.642,69.442 31.942,91.667c21.287,22.221 51.392,33.333 90.279,33.333Zm327.083,86.109c5.088,30.087 16.667,53.25 34.721,69.446c18.059,16.2 42.813,24.304 74.309,24.304c43.504,-0 75.691,-16.892 96.525,-50.692c21.287,-34.254 31.008,-90.746 29.166,-169.446c-8.8,25.471 -25.691,45.609 -50.691,60.417c-24.55,14.358 -52.78,21.529 -84.725,21.529c-48.609,0 -87.742,-14.583 -117.359,-43.75c-29.166,-29.167 -43.75,-69.671 -43.75,-121.529c0,-31.021 6.004,-59.029 18.054,-84.029c12.03,-25 30.313,-44.675 54.863,-59.025c24.529,-14.354 54.617,-21.529 90.275,-21.529c65.729,-0 111.562,21.529 137.5,64.583c25.921,42.592 38.892,103.937 38.892,184.029c-0,86.579 -12.971,151.613 -38.892,195.138c-25.467,43.525 -69.442,65.279 -131.942,65.279c-45.833,-0 -81.496,-12.275 -106.946,-36.809c-25.47,-25 -40.52,-57.637 -45.137,-97.916l45.137,-0Zm106.946,-86.109c21.75,0 41.667,-4.391 59.721,-13.195c18.508,-9.255 33.333,-22.692 44.446,-40.28c11.108,-17.583 16.667,-38.662 16.667,-63.191c-0,-37.967 -10.888,-69.217 -32.642,-93.75c-21.3,-24.538 -52.083,-36.809 -92.358,-36.809c-35.663,0 -64.359,11.113 -86.113,33.334c-21.304,22.225 -31.946,51.854 -31.946,88.891c0,38.888 10.642,69.442 31.946,91.667c21.283,22.221 51.388,33.333 90.279,33.333Zm576.388,-237.5l-254.167,0l0,177.775c11.563,-16.195 28.471,-29.391 50.696,-39.583c22.221,-10.646 46.283,-15.971 72.221,-15.971c37.95,0 68.975,7.871 93.054,23.613c24.062,15.275 41.425,35.416 52.083,60.416c10.642,24.53 15.975,50.921 15.975,79.167c0,32.413 -6.25,61.804 -18.75,88.192c-12.05,25.921 -30.8,46.529 -56.25,61.808c-25,15.275 -56.25,22.917 -93.75,22.917c-47.691,-0 -86.354,-12.275 -115.975,-36.809c-29.633,-25 -47.691,-58.558 -54.166,-100.691l47.916,-0c6.009,30.554 19.896,54.166 41.667,70.833c21.754,16.667 48.612,25 80.558,25c40.275,0 70.588,-11.808 90.971,-35.417c20.833,-24.079 31.25,-55.783 31.25,-95.141c0,-38.417 -10.417,-68.279 -31.25,-89.584c-20.833,-21.75 -50.696,-32.637 -89.583,-32.637c-26.859,-0 -50.471,6.25 -70.834,18.75c-20.383,12.5 -35.416,29.392 -45.137,50.696l-45.833,-0l-0,-275.696l299.304,-0l-0,42.362Z" style="fill:#f2f2f2;fill-rule:nonzero;"/><path d="M43.1,858.971c-0.204,1.216 -0.475,2.508 -0.883,3.729c0.408,-1.221 0.679,-2.513 0.883,-3.729Zm0.271,-1.496c-0,2.237 0.271,9.9 2.983,20.346c5.563,20.954 20.004,39.946 39.671,51.95l771.146,469.358c-1.288,-7.596 -1.829,-15.396 -1.829,-23.396c-0,-75.55 32.687,-127.7 109.454,-174.491l734.05,-447.05c9.7,-5.9 10.717,-15.667 10.717,-19.6c-0,-3.934 -1.017,-13.7 -10.717,-19.6l-779.692,-474.855l-787.891,479.809c-64.021,38.991 -87.759,75.612 -87.759,135.021c0,0.816 -0.066,1.695 -0.133,2.508Zm912.879,640.329c-16.137,0 -31.737,-4.341 -46.179,-13.158c-2.917,-1.829 -5.696,-3.663 -8.413,-5.834l-837.266,-509.641c-29.838,-18.038 -50.996,-46.25 -59.746,-79.142c-4.271,-16.479 -5.154,-27.671 -4.409,-35.267c0.067,-75.479 32.759,-127.562 109.459,-174.287l798.679,-486.45c6.646,-4.071 14.85,-4.071 21.563,-0l790.541,481.5c20.284,12.342 32.35,34.45 32.35,59.067c0,24.616 -12.066,46.796 -32.35,59.066l-734.05,447.05c-64.083,39.063 -87.821,75.617 -87.821,135.025c0,26.992 10.513,51.813 27.4,65.375c0.338,0.338 0.813,0.613 1.15,0.95c1.492,1.084 2.984,2.1 4.546,3.05c17.159,10.513 37.5,9.155 58.796,-3.795l742.458,-452.205l-60.287,-41.437c-9.971,-6.779 -12.75,-20.954 -6.309,-31.533c6.58,-10.513 19.938,-13.496 29.976,-6.58l89.72,61.646c6.304,4.342 10.038,11.8 9.829,19.734c-0.191,7.937 -4.27,15.191 -10.854,19.125l-772.833,470.72c-18.646,11.392 -37.638,17.021 -55.95,17.021Z" style="fill:#f2f2f2;fill-rule:nonzero;"/><path d="M1317.58,1785c-7.462,0 -14.716,-4.063 -18.72,-11.388c-5.967,-10.854 -2.438,-24.829 7.937,-31.129l426.158,-259.6l-60.287,-41.371c-9.971,-6.916 -12.75,-21.02 -6.304,-31.6c6.575,-10.579 19.933,-13.562 29.971,-6.645l89.72,61.712c6.305,4.342 10.034,11.8 9.825,19.733c-0.187,7.934 -4.266,15.125 -10.85,19.125l-456.67,278.125c-3.388,2.171 -7.121,3.038 -10.78,3.038Z" style="fill:#f2f2f2;fill-rule:nonzero;"/><path d="M43.1,1352.81c-0.204,1.221 -0.475,2.442 -0.883,3.596c0.408,-1.154 0.679,-2.375 0.883,-3.596Zm870.563,623.65c-3.73,0 -7.459,-1.025 -10.851,-3.054l-838.42,-510.392c-29.838,-18.175 -50.996,-46.32 -59.746,-79.279c-4.271,-16.412 -5.154,-27.533 -4.409,-35.196c0.067,-75.345 32.621,-127.429 108.917,-174.016l36.35,-24.892c10.034,-6.85 23.463,-3.867 29.975,6.646c6.442,10.65 3.659,24.754 -6.375,31.604l-36.825,25.225c-0.342,0.208 -0.679,0.409 -1.017,0.613c-64.02,38.995 -87.758,75.616 -87.758,135.02c0,0.817 -0.067,1.63 -0.133,2.513c-0,2.171 0.271,9.967 2.983,20.275c5.563,21.092 20.004,40.012 39.671,51.95l838.487,510.396c10.313,6.304 13.838,20.279 7.801,31.129c-3.934,7.379 -11.259,11.458 -18.65,11.458Z" style="fill:#f2f2f2;fill-rule:nonzero;"/><path d="M1169.94,2051.13c-3.663,0 -7.392,-1.025 -10.646,-2.987c-6.784,-4.009 -10.988,-11.596 -10.988,-19.809l0,-135.695l-136.246,81.979c-34.854,21.233 -71.137,22.587 -101.995,3.804c-33.704,-20.608 -54.725,-62.325 -54.725,-108.838c-0,-75.695 32.687,-127.845 109.454,-174.57l734.05,-447.117c9.696,-5.829 10.716,-15.596 10.716,-19.529c0.001,-4.005 -1.02,-13.7 -10.716,-19.6c-10.309,-6.309 -13.833,-20.28 -7.867,-31.196c5.9,-10.85 19.192,-14.579 29.5,-8.342c20.284,12.342 32.35,34.45 32.35,59.138c0,24.616 -12.066,46.725 -32.35,59.071l-734.05,447.116c-64.083,38.917 -87.821,75.55 -87.821,135.029c0,29.825 12.955,57.1 33.092,69.375c17.158,10.434 37.504,9.15 58.8,-3.87l168.729,-101.459c6.713,-4.062 14.917,-3.992 21.563,0.071c6.646,4.063 10.783,11.667 10.783,19.737l0,134.688l104.371,-65.988l-0,-159.916c-0,-31.604 -16.208,-61.034 -42.25,-76.7c-10.446,-6.309 -13.971,-20.209 -8.071,-31.129c5.9,-10.984 19.125,-14.717 29.433,-8.475c39.538,23.733 64.155,68.358 64.155,116.304l-0,172.866c-0,8.071 -4,15.467 -10.58,19.53l-147.57,93.25c-3.459,2.166 -7.325,3.262 -11.121,3.262Z" style="fill:#f2f2f2;fill-rule:nonzero;"/><path d="M784.133,1111.38c-3.529,0 -7.12,-0.95 -10.445,-2.916l-663.655,-388.321c-10.445,-6.1 -14.241,-20.004 -8.408,-30.992c5.696,-11.054 18.85,-15.054 29.363,-8.95l663.587,388.388c10.513,6.104 14.313,20.004 8.479,31.058c-3.933,7.463 -11.325,11.733 -18.921,11.733Z" style="fill:#f2f2f2;fill-rule:nonzero;"/></g></svg>