<?xml version="1.0" encoding="UTF-8" standalone="no"?><!DOCTYPE svg PUBLIC "-//W3C//DTD SVG 1.1//EN" "http://www.w3.org/Graphics/SVG/1.1/DTD/svg11.dtd"><svg width="100%" height="100%" viewBox="0 0 3130 2319" version="1.1" xmlns="http://www.w3.org/2000/svg" xmlns:xlink="http://www.w3.org/1999/xlink" xml:space="preserve" xmlns:serif="http://www.serif.com/" style="fill-rule:evenodd;clip-rule:evenodd;stroke-linejoin:round;stroke-miterlimit:2;"><path d="M2833.96,2307.66l-663.607,-0l0,-20.364c0,-36.573 30.094,-66.667 66.667,-66.667l530.273,0c36.573,0 66.667,30.094 66.667,66.667l-0,20.364Z" style="fill:#e6e6e6;fill-rule:nonzero;"/><path d="M2486.63,2224.69l20.18,-8.128c-211.154,-524.121 -190.812,-1185.34 -12.318,-1752.55c43.25,-134.055 2.593,-281.707 -103.184,-374.726c-103.604,-92.454 -246.436,-114.977 -372.78,-58.785c-124.71,55.475 -141.9,152.104 -141.9,248.263l21.758,0c-0,-102.645 21.935,-180.764 128.986,-228.383c118.414,-52.662 252.311,-31.539 349.447,55.14c99.353,87.366 137.542,226.047 96.919,351.957c-180.555,573.761 -199.704,1239.53 12.892,1767.22Z" style="fill:#e6e6e6;fill-rule:nonzero;"/><circle cx="1892.94" cy="523.533" r="76.152" style="fill:#e6e6e6;"/><path d="M1775.66,656.287l0,-144.289l22.436,0l0,144.289c11.277,4.562 18.697,15.567 18.697,27.732c-0,16.41 -13.504,29.914 -29.915,29.914c-16.411,0 -29.914,-13.504 -29.914,-29.914c-0,-12.165 7.419,-23.17 18.696,-27.732Z" style="fill:#e6e6e6;fill-rule:nonzero;"/><path d="M1667.21,401.146c0.078,-68.602 56.505,-125.029 125.107,-125.107l206.697,0c68.631,0.001 125.106,56.475 125.106,125.107c0,68.631 -56.475,125.106 -125.106,125.106l-206.697,0c-68.602,-0.078 -125.029,-56.505 -125.107,-125.106Z" style="fill:#a4243b;fill-rule:nonzero;"/><path d="M1375.98,1175.88c20.753,-265.511 126.861,-392.014 58.918,-471.346c-65.081,-75.99 -248.403,-60.292 -366.135,12.626c-317.551,196.676 -433.889,980.552 -25.25,1363.54c388.311,363.932 1124.24,247.372 1287.78,-50.502c38.16,-69.502 68.475,-191.343 12.625,-265.132c-138.66,-183.196 -642.796,148.623 -866.94,-58.918c-132.835,-122.996 -112.391,-384.552 -101.002,-530.264Z" style="fill:#273e47;fill-rule:nonzero;"/><path d="M1618.72,1043.97c-15.938,7.332 -23.243,26.284 -16.349,42.416c0.703,1.576 1.535,3.092 2.488,4.53l-68.158,91.008l34.01,50.832l79.89,-134.763c11.604,-9.048 15.683,-24.901 9.889,-38.427c-4.956,-11.271 -16.159,-18.582 -28.471,-18.582c-4.311,0 -8.575,0.896 -12.521,2.632c-0.261,0.114 -0.52,0.233 -0.778,0.354Z" style="fill:#ffb6b6;fill-rule:nonzero;"/><path d="M1618.67,1200.89c4.461,3.956 -7.912,8.837 -21,1.136c-3.745,-2.23 -5.345,-3.156 -5.765,-2.567c-1.052,1.473 5.092,12.331 3.451,36.445c-1.011,14.393 -24.914,41.453 -52.059,67.84c-36.698,35.688 -79.371,70.113 -79.371,70.113l-14.982,-11.994l-157.102,-125.959l-26.513,-36.698c2.428,-14.492 6.074,-28.753 10.9,-42.631c6.648,-19.211 14.549,-37.965 23.652,-56.141c4.881,-9.89 9.889,-19.317 14.687,-27.986l84.169,92.754l70.534,77.688c-0,0 20.537,-33.078 36.445,-42.084c2.028,-1.296 4.337,-2.089 6.733,-2.315c16.077,-0.758 17.045,-9.511 -1.599,-28.575c-18.643,-19.065 4.882,-1.263 21.463,-6.397c16.581,-5.135 0,-0 3.493,-12.836c3.493,-12.836 49.996,-38.591 49.996,-38.591l1.937,1.725l35.14,31.017l10.058,8.879c0,0 -10.984,30.133 -14.014,36.487c-3.03,6.355 -4.672,6.692 -0.253,10.69Z" style="fill:#a4243b;fill-rule:nonzero;"/><path d="M2545.02,1785.5l1.712,-46.421l-178.233,-28.696l-2.529,68.509l179.05,6.608Z" style="fill:#ffb6b6;fill-rule:nonzero;"/><path d="M2512.66,1799.48l-1.69,-74.325l31.774,1.173l51.296,-68.711c3.746,-5.019 9.653,-7.981 15.916,-7.981c10.895,-0 19.861,8.965 19.861,19.861c-0,0.244 -0.005,0.489 -0.014,0.733l-3.258,88.292l-31.99,14.058l31.21,7.102l-1.229,33.29l-111.876,-13.492Z" style="fill:#2f2e41;fill-rule:nonzero;"/><path d="M1541.89,1803.58l564.533,14.314c0,-0 243.785,14.081 300.983,-23.128l60.317,-7.615l3.269,-88.599c-0,0 -36.884,0.272 -58.09,-9.608c-21.206,-9.881 -6.468,-21.971 -26.686,-10.083c-20.219,11.888 -18.083,13.318 -33.715,7.854c-15.633,-5.463 -732.48,-114.727 -732.48,-114.727l-78.131,231.592Z" style="fill:#2f2e41;fill-rule:nonzero;"/><path d="M2285.8,1765.13l32.829,-32.862l-111.146,-142.263l-48.45,48.508l126.767,126.617Z" style="fill:#ffb6b6;fill-rule:nonzero;"/><path d="M2252.58,1736.54l49.311,-55.636l22.496,22.47l84.337,-15.484c1.184,-0.217 2.385,-0.327 3.588,-0.327c10.896,0 19.861,8.966 19.861,19.861c0,5.262 -2.091,10.314 -5.81,14.036l-62.437,62.511l-33.014,-11.452l18.05,26.433l-23.541,23.569l-72.841,-85.981Z" style="fill:#2f2e41;fill-rule:nonzero;"/><path d="M1319.17,1494.4l5.613,130.46c6.607,153.581 175.741,246.533 306.892,166.346c2.418,-1.478 4.843,-3.009 7.276,-4.593c2.434,-1.584 49.72,-13.352 48.211,-34.497c-1.509,-21.146 10.637,-31.437 21.386,-25.671c10.749,5.767 151.488,-193.969 151.488,-193.969c-0,0 292.409,145.86 356.916,180.196c0,0 60.65,-94.829 56.253,-93.835c-4.397,0.994 -361.745,-249.119 -361.745,-249.119c-0,0 -58.216,-58.918 -130.432,-20.016c-1.504,5.714 -0.218,5.913 -0.218,5.913l-238.553,194.383l-33.707,-64.014l-189.38,8.416Z" style="fill:#2f2e41;fill-rule:nonzero;"/><path d="M1544.09,1331.31c-0.453,6.026 -1.311,12.016 -2.568,17.927c-1.718,8.558 -4.488,16.869 -8.248,24.746c-3.76,7.877 0,8.796 -16.834,38.255c-16.834,29.459 4.209,16.834 16.834,38.718c12.625,21.842 0,11.783 -14.014,25.839c-8.206,8.32 -11.258,20.481 -7.954,31.69c3.304,11.209 -180.795,0.127 -214.463,-12.499c-33.667,-12.625 -41.327,-83.748 -11.152,-90.776c30.132,-7.028 -9.132,-14.014 -26.85,-30.217c-17.718,-16.202 17.718,-42.715 17.718,-42.715c-0,-0 -14.604,-25.209 -13.383,-109.841c0.172,-7.784 0.889,-15.546 2.146,-23.23c2.427,-14.492 6.074,-28.753 10.9,-42.632c6.647,-19.211 14.548,-37.965 23.651,-56.141c4.882,-9.889 9.89,-19.316 14.688,-27.986c0.757,-1.346 1.473,-2.651 2.23,-3.956c9.133,-16.16 17.465,-29.375 22.978,-37.834c4.251,-6.565 6.818,-10.268 6.818,-10.268l30.637,-53.279l102.266,47.934l-5.808,78.403l17.633,59.129l8.123,27.229l6.27,21l9.68,32.531c-0,-0 -2.652,0.126 0.505,4.461c14.535,19.325 23.959,42.01 27.396,65.946c1.212,9.137 1.481,18.374 0.8,27.566Z" style="fill:#a4243b;fill-rule:nonzero;"/><path d="M1839.42,1339.76l-1.919,-0.62l-244.768,-78.82l90.195,-295.903c5.207,-17.081 21.074,-28.832 38.931,-28.832c7.281,-0 14.431,1.954 20.701,5.658l156.416,92.413c25.45,15.02 36.6,46.407 26.328,74.116l-85.884,231.988Z" style="fill:#2f2e41;fill-rule:nonzero;"/><path d="M1840.42,1358.57l-246.737,-79.454l90.195,-295.903c5.207,-17.081 21.074,-28.832 38.931,-28.832c7.282,-0 14.432,1.954 20.701,5.658l163.884,81.823c24.621,14.542 24.045,52.181 12.613,83.065l-79.587,233.643Z" style="fill:#a4243b;fill-rule:nonzero;"/><circle cx="1473.71" cy="855.058" r="112.958" style="fill:#ffb6b6;"/><path d="M1091.74,969.718c10.363,20.089 27.367,35.985 48.108,44.973c8.278,3.771 16.983,6.526 25.924,8.204c2.528,-10.022 6.573,-19.599 11.997,-28.398c-1.807,9.917 -1.807,20.08 -0,29.998c13.621,1.114 27.327,-0.587 40.263,-4.998c25.739,-8.754 45.889,-29.167 54.307,-55.018c8.998,-29.942 -0.694,-61.922 -1.457,-93.175c-0.787,-31.257 14.055,-68.641 45.084,-72.509c23.63,-2.95 20.708,-0.659 37.688,16.034c-23.751,26.384 34.15,143.238 65.219,138.075c17.566,-2.919 30.492,-16.865 33.967,-16.382c17.789,43.567 -35.725,105.357 6.719,125.641l-3.149,-4.167c-22.217,-36.702 43.521,-98.69 21.305,-135.392c-6.194,-10.267 -12.634,-22.304 -8.802,-33.662c3.637,-10.798 22.055,-14.216 25.941,-4.387c-6.317,-22.528 11.318,-48.969 34.741,-51.268c20.808,-2.053 19.607,3.878 39.447,9.289c2.535,-8.546 6.189,-16.721 10.865,-24.311c-1.583,8.659 -1.778,17.515 -0.579,26.235c7.155,0.854 14.395,-0.678 20.59,-4.358c18.322,-10.983 18.866,-39.334 6.281,-56.589c-12.609,-17.258 -33.729,-25.779 -54.104,-32.226c-0.187,-43.09 -116.132,-63.718 -137.456,-23.657c-2.194,-32.437 -39.377,-54.288 -71.408,-48.778c-32.032,5.511 -57.301,31.194 -72.708,59.822c-15.403,28.605 -23.05,60.635 -34.326,91.104c-11.277,30.469 -27.396,60.85 -54.399,78.928c-26.998,18.055 -67.122,19.695 -89.665,-3.706c-10.419,20.249 -10.565,44.303 -0.393,64.678Z" style="fill:#2f2e41;fill-rule:nonzero;"/><path d="M1815.71,1379.98c-11.482,6.478 -25.175,7.839 -37.708,3.75l-157.708,-50.787c-25.007,-8.17 -39.126,-35.178 -31.562,-60.375l79.068,-259.396c5.206,-17.078 21.072,-28.829 38.927,-28.829c4.314,0 8.601,0.686 12.699,2.032l163.434,53.663c25.118,8.246 42.209,31.844 42.209,58.281c-0,7.06 -1.219,14.068 -3.604,20.714l-84.539,235.688c-3.795,10.699 -11.333,19.673 -21.216,25.259Z" style="fill:#273e47;fill-rule:nonzero;"/><path d="M1207.64,1486.27c2.337,-1.868 4.872,-3.474 7.561,-4.788c43.236,-21.519 177.689,-77.374 282.821,-75.082c202.283,4.409 459.716,227.654 399.803,377.57c-45.589,114.074 -272.235,178.975 -437.679,127.068c-231.774,-72.719 -323.258,-368.356 -252.506,-424.768Z" style="fill:#273e47;fill-rule:nonzero;"/><path d="M367.882,2308.09c-66.098,-12.47 -124.607,-310.252 5.439,-456.91c44.556,-50.247 100.133,-72.117 174.061,-92.47c425.506,-117.145 750.046,-5.5 793.66,21.758c43.515,27.197 119.801,436.98 22.25,494.985c-54.887,32.637 -163.675,48.955 -217.576,10.879c-79.311,-56.026 53.814,-201.348 -5.439,-299.167c-67.24,-111.003 -421.312,-148.393 -598.827,-38.076c-189.391,117.697 201.258,429.713 -173.568,359.001Z" style="fill:#f2f2f2;fill-rule:nonzero;"/><path d="M809.804,1801.79l-252.518,0c-62.336,-59.741 -106.906,-117.316 -71.223,-165.108c0,-28.415 23.383,-51.798 51.799,-51.798l291.366,-0c28.416,-0 51.799,23.383 51.799,51.798c13.586,54.456 -10.686,109.5 -71.223,165.108Z" style="fill:#ccc;fill-rule:nonzero;"/><path d="M764.454,1519.68c-0.179,0.009 -0.358,0.013 -0.537,0.013c-6.417,-0 -11.698,-5.281 -11.698,-11.698c0,-3.26 1.363,-6.376 3.757,-8.589l0.802,-3.187c-0.106,-0.255 -0.212,-0.51 -0.319,-0.765c-4.909,-11.595 -16.335,-19.166 -28.927,-19.166c-12.676,0 -24.163,7.673 -29.017,19.382c-9.478,22.825 -21.544,45.689 -24.515,69.823c-1.308,10.668 -0.756,21.482 1.632,31.961c-22.259,-48.554 -33.818,-101.331 -33.892,-154.744c-0.005,-13.404 0.74,-26.798 2.23,-40.118c1.232,-10.92 2.941,-21.763 5.127,-32.527c11.93,-58.406 37.548,-113.156 74.743,-159.739c18,-9.822 32.563,-24.931 41.715,-43.281c3.317,-6.597 5.66,-13.639 6.959,-20.908c-2.031,0.267 -7.658,-30.663 -6.126,-32.56c-2.83,-4.295 -7.896,-6.43 -10.987,-10.621c-15.372,-20.842 -36.552,-17.203 -47.608,11.12c-23.62,11.921 -23.849,31.691 -9.356,50.705c9.221,12.097 10.488,28.465 18.578,41.416c-0.833,1.066 -1.698,2.098 -2.531,3.163c-15.215,19.565 -28.476,40.573 -39.592,62.724c2.703,-24.814 -0.524,-49.92 -9.415,-73.244c-9.011,-21.739 -25.901,-40.047 -40.775,-58.84c-17.865,-22.573 -54.501,-12.722 -57.649,15.893c-0.03,0.277 -0.06,0.554 -0.089,0.831c2.209,1.247 4.372,2.569 6.488,3.969c4.402,2.941 7.052,7.899 7.052,13.193c0,7.796 -5.745,14.494 -13.449,15.682l-0.324,0.05c0.787,7.962 2.178,15.853 4.162,23.604c-19.082,73.792 22.113,100.669 80.934,101.876c1.299,0.666 2.564,1.332 3.863,1.965c-11.169,31.651 -18.175,64.622 -20.842,98.08c-1.509,19.74 -1.42,39.569 0.267,59.295l-0.1,-0.7c-4.261,-21.929 -15.967,-41.728 -33.127,-56.031c-25.492,-20.942 -61.509,-28.653 -89.011,-45.486c-2.935,-1.884 -6.351,-2.886 -9.839,-2.886c-9.99,-0 -18.211,8.221 -18.211,18.211c0,0.8 0.053,1.599 0.158,2.392c0.037,0.245 0.074,0.49 0.112,0.735c4.1,1.67 8.092,3.593 11.952,5.759c2.21,1.247 4.372,2.57 6.488,3.969c4.402,2.941 7.052,7.899 7.052,13.193c0,7.796 -5.745,14.494 -13.449,15.682l-0.324,0.05c-0.233,0.033 -0.433,0.066 -0.666,0.1c7.005,16.725 16.837,32.121 29.065,45.511c11.931,64.417 63.175,70.529 117.99,51.77l0.033,0c6.014,26.135 14.728,51.574 26.002,75.908l92.886,-0c0.334,-1.032 0.633,-2.098 0.933,-3.13c-8.598,0.54 -17.23,0.026 -25.702,-1.531c6.891,-8.457 13.783,-16.98 20.675,-25.436c0.153,-0.158 0.298,-0.325 0.432,-0.5c3.496,-4.327 7.025,-8.622 10.521,-12.95l0.002,-0.006c0.186,-13.266 -1.336,-26.502 -4.53,-39.38l-0.003,-0.002Z" style="fill:#ccc;fill-rule:nonzero;"/><path d="M1081.27,1788.26c3.152,9.178 11.918,15.319 21.621,15.145l92.636,-2.384c9.783,-0.191 18.332,-6.847 20.914,-16.285l13.109,-140.177c4.651,2.107 9.715,3.148 14.82,3.045c18.207,-0.457 32.935,-15.56 32.935,-33.773c0,-18.533 -15.25,-33.784 -33.783,-33.784c-0.283,0 -0.566,0.004 -0.848,0.011c-2.04,-0.006 -4.076,0.205 -6.071,0.631c-4.386,-4.745 -10.582,-7.418 -17.044,-7.353l-142.496,3.679c-1.182,0.044 -2.358,0.19 -3.515,0.437c-10.495,1.956 -18.177,11.202 -18.177,21.878c-0,2.386 0.384,4.757 1.136,7.021l24.763,181.909Zm150.969,-153.218l9.328,-33.405c1.061,-3.858 1.085,-7.929 0.071,-11.8c0.453,-0.001 0.852,-0.216 1.305,-0.217c0.164,-0.003 0.329,-0.005 0.494,-0.005c13.256,0 24.164,10.909 24.164,24.165c0,13.016 -10.516,23.813 -23.527,24.156c-4.135,0.129 -8.227,-0.872 -11.835,-2.894Z" style="fill:#ccc;fill-rule:nonzero;"/><path d="M1073.55,1577.45c3.036,17.358 37.168,29.561 78.209,27.44c37.74,-1.739 68.598,-14.991 74.252,-30.697c-2.093,-0.618 -4.268,-0.908 -6.45,-0.859l-142.496,3.679c-1.182,0.044 -2.358,0.19 -3.515,0.437Z" style="fill:#fff;fill-rule:nonzero;"/><path d="M1754.76,1205.89c-17.532,0.64 -31.563,15.326 -31.402,32.869c0.043,1.725 0.229,3.444 0.556,5.139l-97.911,57.804l11.852,60.002l125.564,-93.686c14.19,-3.892 24.051,-16.957 23.903,-31.671c-0.33,-16.829 -14.265,-30.492 -31.097,-30.492c-0.204,0 -0.407,0.002 -0.611,0.006c-0.285,0.006 -0.57,0.015 -0.854,0.029Z" style="fill:#ffb6b6;fill-rule:nonzero;"/><path d="M1674.55,1343.69c-2.619,-3.509 -3.744,-4.978 -4.34,-4.575c-1.533,0.925 -0.058,13.322 -10.841,34.928c-15.181,30.354 -174.35,76.843 -174.35,76.843l-19.597,-35.877l-86.199,-157.665l-29.711,-126.374c-1.039,-4.407 -1.544,-8.922 -1.503,-13.449c26.49,-18.642 54.622,-34.835 84.047,-48.379c11.755,6.668 20.723,17.352 25.252,30.085l59.336,166.372l23.678,66.425c-0,0 41.767,-29.866 56.917,-24.384c15.126,5.517 19.424,-2.218 9.537,-26.979c-9.887,-24.76 4.953,0.727 22.223,2.347c17.305,1.644 0,0 8.174,-10.507c8.174,-10.507 61.02,-16.418 61.02,-16.418l1.123,2.344l20.479,42.127l5.863,12.103c-0,0 -21.711,23.556 -26.949,28.251c-5.263,4.729 -6.888,4.402 -4.312,9.789c2.543,5.363 -10.75,5.119 -19.847,-7.007Z" style="fill:#a4243b;fill-rule:nonzero;"/></svg>